<mxfile host="app.diagrams.net" agent="Mozilla/5.0 (Windows NT 10.0; Win64; x64) AppleWebKit/537.36 (KHTML, like Gecko) Chrome/134.0.0.0 Safari/537.36" version="26.2.7">
  <diagram id="Ht1M8jgEwFfnCIfOTk4-" name="Page-1">
    <mxGraphModel grid="1" page="1" gridSize="10" guides="1" tooltips="1" connect="1" arrows="1" fold="1" pageScale="1" pageWidth="1169" pageHeight="827" math="0" shadow="0">
      <root>
        <mxCell id="0" />
        <mxCell id="1" parent="0" />
        <mxCell id="UEzPUAAOIrF-is8g5C7q-74" value="AWS Cloud" style="points=[[0,0],[0.25,0],[0.5,0],[0.75,0],[1,0],[1,0.25],[1,0.5],[1,0.75],[1,1],[0.75,1],[0.5,1],[0.25,1],[0,1],[0,0.75],[0,0.5],[0,0.25]];outlineConnect=0;gradientColor=none;html=1;whiteSpace=wrap;fontSize=12;fontStyle=0;shape=mxgraph.aws4.group;grIcon=mxgraph.aws4.group_aws_cloud_alt;strokeColor=#232F3E;fillColor=none;verticalAlign=top;align=left;spacingLeft=30;fontColor=#232F3E;dashed=0;labelBackgroundColor=#ffffff;container=1;pointerEvents=0;collapsible=0;recursiveResize=0;" vertex="1" parent="1">
          <mxGeometry x="130" y="60" width="940" height="672" as="geometry" />
        </mxCell>
        <mxCell id="2To4Lg_6mNJgqHkVp9uK-2" value="US-EAST-2" style="points=[[0,0],[0.25,0],[0.5,0],[0.75,0],[1,0],[1,0.25],[1,0.5],[1,0.75],[1,1],[0.75,1],[0.5,1],[0.25,1],[0,1],[0,0.75],[0,0.5],[0,0.25]];outlineConnect=0;gradientColor=none;html=1;whiteSpace=wrap;fontSize=12;fontStyle=0;container=1;pointerEvents=0;collapsible=0;recursiveResize=0;shape=mxgraph.aws4.group;grIcon=mxgraph.aws4.group_region;strokeColor=#00A4A6;fillColor=none;verticalAlign=top;align=left;spacingLeft=30;fontColor=#147EBA;dashed=1;" vertex="1" parent="UEzPUAAOIrF-is8g5C7q-74">
          <mxGeometry x="10" y="30" width="920" height="610" as="geometry" />
        </mxCell>
        <mxCell id="UC3JsSp_i03SQCJfxstO-37" value="" style="points=[[0,0],[0.25,0],[0.5,0],[0.75,0],[1,0],[1,0.25],[1,0.5],[1,0.75],[1,1],[0.75,1],[0.5,1],[0.25,1],[0,1],[0,0.75],[0,0.5],[0,0.25]];outlineConnect=0;gradientColor=none;html=1;whiteSpace=wrap;fontSize=12;fontStyle=0;container=1;pointerEvents=0;collapsible=0;recursiveResize=0;shape=mxgraph.aws4.group;grIcon=mxgraph.aws4.group_on_premixse;strokeColor=#7D8998;fillColor=none;verticalAlign=top;align=left;spacingLeft=30;fontColor=#5A6C86;dashed=0;" vertex="1" parent="2To4Lg_6mNJgqHkVp9uK-2">
          <mxGeometry x="20" y="31" width="880" height="559" as="geometry" />
        </mxCell>
        <mxCell id="UC3JsSp_i03SQCJfxstO-39" value="Elastic Kubernetes Instance" style="points=[[0,0,0],[0.25,0,0],[0.5,0,0],[0.75,0,0],[1,0,0],[0,1,0],[0.25,1,0],[0.5,1,0],[0.75,1,0],[1,1,0],[0,0.25,0],[0,0.5,0],[0,0.75,0],[1,0.25,0],[1,0.5,0],[1,0.75,0]];outlineConnect=0;fontColor=#232F3E;fillColor=#ED7100;strokeColor=#ffffff;dashed=0;verticalLabelPosition=middle;verticalAlign=middle;align=left;html=1;fontSize=12;fontStyle=0;aspect=fixed;shape=mxgraph.aws4.resourceIcon;resIcon=mxgraph.aws4.eks_cloud;labelPosition=right;spacingLeft=2;" vertex="1" parent="UC3JsSp_i03SQCJfxstO-37">
          <mxGeometry width="27" height="27" as="geometry" />
        </mxCell>
        <mxCell id="UC3JsSp_i03SQCJfxstO-41" value="" style="points=[[0,0],[0.25,0],[0.5,0],[0.75,0],[1,0],[1,0.25],[1,0.5],[1,0.75],[1,1],[0.75,1],[0.5,1],[0.25,1],[0,1],[0,0.75],[0,0.5],[0,0.25]];outlineConnect=0;gradientColor=none;html=1;whiteSpace=wrap;fontSize=12;fontStyle=0;container=1;pointerEvents=0;collapsible=0;recursiveResize=0;shape=mxgraph.aws4.group;grStroke=0;strokeColor=#00A4A6;fillColor=#E6F6F7;verticalAlign=top;align=left;spacingLeft=30;fontColor=#147EBA;dashed=0;" vertex="1" parent="UC3JsSp_i03SQCJfxstO-37">
          <mxGeometry x="20" y="39" width="250" height="501" as="geometry" />
        </mxCell>
        <mxCell id="UC3JsSp_i03SQCJfxstO-43" value="Control Plane" style="aspect=fixed;html=1;dashed=0;whitespace=wrap;verticalLabelPosition=middle;verticalAlign=middle;fillColor=#2875E2;strokeColor=#ffffff;points=[[0.005,0.63,0],[0.1,0.2,0],[0.9,0.2,0],[0.5,0,0],[0.995,0.63,0],[0.72,0.99,0],[0.5,1,0],[0.28,0.99,0]];shape=mxgraph.kubernetes.icon2;prIcon=control_plane;labelPosition=right;align=left;" vertex="1" parent="UC3JsSp_i03SQCJfxstO-41">
          <mxGeometry width="27" height="25.92" as="geometry" />
        </mxCell>
        <mxCell id="WNSD578OAHb0zQvH4Scg-2" value="API Server" style="aspect=fixed;html=1;dashed=0;whitespace=wrap;verticalLabelPosition=middle;verticalAlign=middle;fillColor=#2875E2;strokeColor=#ffffff;points=[[0.005,0.63,0],[0.1,0.2,0],[0.9,0.2,0],[0.5,0,0],[0.995,0.63,0],[0.72,0.99,0],[0.5,1,0],[0.28,0.99,0]];shape=mxgraph.kubernetes.icon2;kubernetesLabel=1;prIcon=api;labelPosition=right;align=left;spacingLeft=3;" vertex="1" parent="UC3JsSp_i03SQCJfxstO-41">
          <mxGeometry x="20" y="200" width="40" height="40" as="geometry" />
        </mxCell>
        <mxCell id="r3mNr5fYRvXndfik-BBt-2" value="Controller Manager" style="aspect=fixed;html=1;dashed=0;whitespace=wrap;verticalLabelPosition=middle;verticalAlign=middle;fillColor=#2875E2;strokeColor=#ffffff;points=[[0.005,0.63,0],[0.1,0.2,0],[0.9,0.2,0],[0.5,0,0],[0.995,0.63,0],[0.72,0.99,0],[0.5,1,0],[0.28,0.99,0]];shape=mxgraph.kubernetes.icon2;prIcon=api;labelPosition=right;align=left;spacingLeft=6;" vertex="1" parent="UC3JsSp_i03SQCJfxstO-41">
          <mxGeometry x="20" y="50" width="40" height="40" as="geometry" />
        </mxCell>
        <mxCell id="r3mNr5fYRvXndfik-BBt-3" value="Scheduler" style="aspect=fixed;html=1;dashed=0;whitespace=wrap;verticalLabelPosition=middle;verticalAlign=middle;fillColor=#2875E2;strokeColor=#ffffff;points=[[0.005,0.63,0],[0.1,0.2,0],[0.9,0.2,0],[0.5,0,0],[0.995,0.63,0],[0.72,0.99,0],[0.5,1,0],[0.28,0.99,0]];shape=mxgraph.kubernetes.icon2;kubernetesLabel=1;prIcon=sched;labelPosition=right;align=left;spacingLeft=6;" vertex="1" parent="UC3JsSp_i03SQCJfxstO-41">
          <mxGeometry x="20" y="120" width="40" height="40" as="geometry" />
        </mxCell>
        <mxCell id="r3mNr5fYRvXndfik-BBt-5" value="ETCD" style="aspect=fixed;html=1;dashed=0;whitespace=wrap;verticalLabelPosition=middle;verticalAlign=middle;fillColor=#2875E2;strokeColor=#ffffff;points=[[0.005,0.63,0],[0.1,0.2,0],[0.9,0.2,0],[0.5,0,0],[0.995,0.63,0],[0.72,0.99,0],[0.5,1,0],[0.28,0.99,0]];shape=mxgraph.kubernetes.icon2;kubernetesLabel=1;prIcon=etcd;labelPosition=right;align=left;spacingLeft=6;" vertex="1" parent="UC3JsSp_i03SQCJfxstO-41">
          <mxGeometry x="20" y="280" width="40" height="40" as="geometry" />
        </mxCell>
        <mxCell id="r3mNr5fYRvXndfik-BBt-6" value="Kubelet" style="aspect=fixed;html=1;dashed=0;whitespace=wrap;verticalLabelPosition=middle;verticalAlign=middle;fillColor=#2875E2;strokeColor=#ffffff;points=[[0.005,0.63,0],[0.1,0.2,0],[0.9,0.2,0],[0.5,0,0],[0.995,0.63,0],[0.72,0.99,0],[0.5,1,0],[0.28,0.99,0]];shape=mxgraph.kubernetes.icon2;kubernetesLabel=1;prIcon=kubelet;labelPosition=right;align=left;spacingLeft=6;" vertex="1" parent="UC3JsSp_i03SQCJfxstO-41">
          <mxGeometry x="20" y="360" width="40" height="40" as="geometry" />
        </mxCell>
        <mxCell id="r3mNr5fYRvXndfik-BBt-7" value="K-Proxy" style="aspect=fixed;html=1;dashed=0;whitespace=wrap;verticalLabelPosition=middle;verticalAlign=middle;fillColor=#2875E2;strokeColor=#ffffff;points=[[0.005,0.63,0],[0.1,0.2,0],[0.9,0.2,0],[0.5,0,0],[0.995,0.63,0],[0.72,0.99,0],[0.5,1,0],[0.28,0.99,0]];shape=mxgraph.kubernetes.icon2;kubernetesLabel=1;prIcon=k_proxy;labelPosition=right;align=left;spacingLeft=6;" vertex="1" parent="UC3JsSp_i03SQCJfxstO-41">
          <mxGeometry x="20" y="440" width="40" height="40" as="geometry" />
        </mxCell>
        <mxCell id="WNSD578OAHb0zQvH4Scg-12" value="" style="points=[[0,0],[0.25,0],[0.5,0],[0.75,0],[1,0],[1,0.25],[1,0.5],[1,0.75],[1,1],[0.75,1],[0.5,1],[0.25,1],[0,1],[0,0.75],[0,0.5],[0,0.25]];outlineConnect=0;html=1;whiteSpace=wrap;fontSize=12;fontStyle=0;container=1;pointerEvents=0;collapsible=0;recursiveResize=0;shape=mxgraph.aws4.group;strokeColor=#36393d;fillColor=#f9f7ed;verticalAlign=top;align=left;spacingLeft=30;dashed=0;" vertex="1" parent="UC3JsSp_i03SQCJfxstO-37">
          <mxGeometry x="290" y="39" width="300" height="221" as="geometry" />
        </mxCell>
        <mxCell id="WNSD578OAHb0zQvH4Scg-14" value="flask-app node group" style="aspect=fixed;html=1;dashed=0;whitespace=wrap;verticalLabelPosition=middle;verticalAlign=middle;fillColor=#2875E2;strokeColor=#ffffff;points=[[0.005,0.63,0],[0.1,0.2,0],[0.9,0.2,0],[0.5,0,0],[0.995,0.63,0],[0.72,0.99,0],[0.5,1,0],[0.28,0.99,0]];shape=mxgraph.kubernetes.icon2;kubernetesLabel=1;prIcon=node;labelPosition=right;align=left;spacingLeft=6;" vertex="1" parent="WNSD578OAHb0zQvH4Scg-12">
          <mxGeometry width="28" height="26.88" as="geometry" />
        </mxCell>
        <mxCell id="WNSD578OAHb0zQvH4Scg-27" value="flask-app-1" style="aspect=fixed;html=1;dashed=0;whitespace=wrap;verticalLabelPosition=bottom;verticalAlign=top;fillColor=#2875E2;strokeColor=#ffffff;points=[[0.005,0.63,0],[0.1,0.2,0],[0.9,0.2,0],[0.5,0,0],[0.995,0.63,0],[0.72,0.99,0],[0.5,1,0],[0.28,0.99,0]];shape=mxgraph.kubernetes.icon2;prIcon=pod;" vertex="1" parent="WNSD578OAHb0zQvH4Scg-12">
          <mxGeometry x="60" y="80" width="36" height="34.56" as="geometry" />
        </mxCell>
        <mxCell id="WNSD578OAHb0zQvH4Scg-28" value="flask-app-2" style="aspect=fixed;html=1;dashed=0;whitespace=wrap;verticalLabelPosition=bottom;verticalAlign=top;fillColor=#2875E2;strokeColor=#ffffff;points=[[0.005,0.63,0],[0.1,0.2,0],[0.9,0.2,0],[0.5,0,0],[0.995,0.63,0],[0.72,0.99,0],[0.5,1,0],[0.28,0.99,0]];shape=mxgraph.kubernetes.icon2;prIcon=pod;" vertex="1" parent="WNSD578OAHb0zQvH4Scg-12">
          <mxGeometry x="180" y="80" width="36" height="34.56" as="geometry" />
        </mxCell>
        <mxCell id="WNSD578OAHb0zQvH4Scg-20" value="" style="points=[[0,0],[0.25,0],[0.5,0],[0.75,0],[1,0],[1,0.25],[1,0.5],[1,0.75],[1,1],[0.75,1],[0.5,1],[0.25,1],[0,1],[0,0.75],[0,0.5],[0,0.25]];outlineConnect=0;html=1;whiteSpace=wrap;fontSize=12;fontStyle=0;container=1;pointerEvents=0;collapsible=0;recursiveResize=0;shape=mxgraph.aws4.group;strokeColor=#36393d;fillColor=#f9f7ed;verticalAlign=top;align=left;spacingLeft=30;dashed=0;" vertex="1" parent="UC3JsSp_i03SQCJfxstO-37">
          <mxGeometry x="290" y="289" width="300" height="240" as="geometry" />
        </mxCell>
        <mxCell id="WNSD578OAHb0zQvH4Scg-21" value="games node group" style="aspect=fixed;html=1;dashed=0;whitespace=wrap;verticalLabelPosition=middle;verticalAlign=middle;fillColor=#2875E2;strokeColor=#ffffff;points=[[0.005,0.63,0],[0.1,0.2,0],[0.9,0.2,0],[0.5,0,0],[0.995,0.63,0],[0.72,0.99,0],[0.5,1,0],[0.28,0.99,0]];shape=mxgraph.kubernetes.icon2;kubernetesLabel=1;prIcon=node;labelPosition=right;align=left;spacingLeft=6;" vertex="1" parent="WNSD578OAHb0zQvH4Scg-20">
          <mxGeometry width="28" height="26.88" as="geometry" />
        </mxCell>
        <mxCell id="WNSD578OAHb0zQvH4Scg-23" value="tetris&lt;div&gt;&lt;br&gt;&lt;/div&gt;" style="aspect=fixed;html=1;dashed=0;whitespace=wrap;verticalLabelPosition=bottom;verticalAlign=top;fillColor=#2875E2;strokeColor=#ffffff;points=[[0.005,0.63,0],[0.1,0.2,0],[0.9,0.2,0],[0.5,0,0],[0.995,0.63,0],[0.72,0.99,0],[0.5,1,0],[0.28,0.99,0]];shape=mxgraph.kubernetes.icon2;prIcon=pod;" vertex="1" parent="WNSD578OAHb0zQvH4Scg-20">
          <mxGeometry x="50" y="60" width="36" height="34.56" as="geometry" />
        </mxCell>
        <mxCell id="WNSD578OAHb0zQvH4Scg-24" value="&lt;div&gt;frogger&lt;/div&gt;" style="aspect=fixed;html=1;dashed=0;whitespace=wrap;verticalLabelPosition=bottom;verticalAlign=top;fillColor=#2875E2;strokeColor=#ffffff;points=[[0.005,0.63,0],[0.1,0.2,0],[0.9,0.2,0],[0.5,0,0],[0.995,0.63,0],[0.72,0.99,0],[0.5,1,0],[0.28,0.99,0]];shape=mxgraph.kubernetes.icon2;prIcon=pod;" vertex="1" parent="WNSD578OAHb0zQvH4Scg-20">
          <mxGeometry x="210" y="60" width="36" height="34.56" as="geometry" />
        </mxCell>
        <mxCell id="WNSD578OAHb0zQvH4Scg-25" value="&lt;div&gt;breakout&lt;/div&gt;" style="aspect=fixed;html=1;dashed=0;whitespace=wrap;verticalLabelPosition=bottom;verticalAlign=top;fillColor=#2875E2;strokeColor=#ffffff;points=[[0.005,0.63,0],[0.1,0.2,0],[0.9,0.2,0],[0.5,0,0],[0.995,0.63,0],[0.72,0.99,0],[0.5,1,0],[0.28,0.99,0]];shape=mxgraph.kubernetes.icon2;prIcon=pod;" vertex="1" parent="WNSD578OAHb0zQvH4Scg-20">
          <mxGeometry x="130" y="150" width="36" height="34.56" as="geometry" />
        </mxCell>
        <mxCell id="WNSD578OAHb0zQvH4Scg-29" value="Connected Services" style="fillColor=#EFF0F3;strokeColor=none;dashed=0;verticalAlign=top;fontStyle=0;fontColor=#232F3D;whiteSpace=wrap;html=1;align=left;" vertex="1" parent="UC3JsSp_i03SQCJfxstO-37">
          <mxGeometry x="610" y="44" width="250" height="491" as="geometry" />
        </mxCell>
        <mxCell id="WNSD578OAHb0zQvH4Scg-30" value="VPC Networking" style="outlineConnect=0;dashed=0;verticalLabelPosition=middle;verticalAlign=middle;align=left;html=1;shape=mxgraph.aws3.vpc;fillColor=#F58536;gradientColor=none;aspect=fixed;labelPosition=right;spacingLeft=6;" vertex="1" parent="UC3JsSp_i03SQCJfxstO-37">
          <mxGeometry x="639" y="89" width="31.11" height="36" as="geometry" />
        </mxCell>
        <mxCell id="WNSD578OAHb0zQvH4Scg-31" value="Elastic Container Registry" style="outlineConnect=0;dashed=0;verticalLabelPosition=middle;verticalAlign=middle;align=left;html=1;shape=mxgraph.aws3.ecr;fillColor=#F58534;gradientColor=none;aspect=fixed;labelPosition=right;spacingLeft=6;" vertex="1" parent="UC3JsSp_i03SQCJfxstO-37">
          <mxGeometry x="639" y="169" width="34.5" height="36" as="geometry" />
        </mxCell>
        <mxCell id="WNSD578OAHb0zQvH4Scg-32" value="Dynamo DB" style="outlineConnect=0;dashed=0;verticalLabelPosition=middle;verticalAlign=middle;align=left;html=1;shape=mxgraph.aws3.dynamo_db;fillColor=light-dark(#f58536, #5f9bd6);gradientColor=none;aspect=fixed;labelPosition=right;spacingLeft=6;" vertex="1" parent="UC3JsSp_i03SQCJfxstO-37">
          <mxGeometry x="640.25" y="253" width="32" height="36" as="geometry" />
        </mxCell>
        <mxCell id="WNSD578OAHb0zQvH4Scg-34" value="Elastic Load Balancer" style="points=[[0,0,0],[0.25,0,0],[0.5,0,0],[0.75,0,0],[1,0,0],[0,1,0],[0.25,1,0],[0.5,1,0],[0.75,1,0],[1,1,0],[0,0.25,0],[0,0.5,0],[0,0.75,0],[1,0.25,0],[1,0.5,0],[1,0.75,0]];outlineConnect=0;fontColor=#232F3E;fillColor=#ED7100;strokeColor=#ffffff;dashed=0;verticalLabelPosition=middle;verticalAlign=middle;align=left;html=1;fontSize=12;fontStyle=0;aspect=fixed;shape=mxgraph.aws4.resourceIcon;resIcon=mxgraph.aws4.elastic_load_balancing;labelPosition=right;spacingLeft=6;" vertex="1" parent="UC3JsSp_i03SQCJfxstO-37">
          <mxGeometry x="640.25" y="339" width="33" height="33" as="geometry" />
        </mxCell>
        <mxCell id="WNSD578OAHb0zQvH4Scg-36" value="nginx services" style="shape=image;verticalLabelPosition=middle;labelBackgroundColor=none;verticalAlign=middle;aspect=fixed;imageAspect=0;editableCssRules=.*;image=data:image/svg+xml,PHN2ZyB4bWxucz0iaHR0cDovL3d3dy53My5vcmcvMjAwMC9zdmciIGhlaWdodD0iNDMuNTUzMDAxNDAzODA4NTk0IiB3aWR0aD0iMzgiIHZpZXdCb3g9IjUgMi40NDcwMDAwMjY3MDI4ODEgMzggNDMuNTUzMDAxNDAzODA4NTk0Ij48cG9seWdvbiBwb2ludHM9IjQzLDM1LjExMiA0MywxMy4zMzYgMjQsMi40NDcgNSwxMy4zMzYgNSwzNS4xMTIgMjQsNDYiIGZpbGw9IiM0M2EwNDciLz48cGF0aCBkPSJNMzIuNSwxM2MtMS4zODEsMC0yLjUsMS4xMTktMi41LDIuNXYxMS4yNzZMMTguOTg0LDE0LjQ1M2wtMC4xMzEtMC4xNTIgQzE3LjYwOSwxMi45MzgsMTYuMTg3LDEzLDE1LjUsMTNjLTEuMzgxLDAtMi41LDEuMTE5LTIuNSwyLjV2MTdjMCwxLjM4MSwxLjExOSwyLjUsMi41LDIuNXMyLjUtMS4xMTksMi41LTIuNVYyMS4xNDEgbDExLjI3OCwxMi42MjdsMC4xMSwwLjE0MkMzMC42MiwzNS4xMzMsMzIuMjk1LDM1LDMyLjUsMzVjMS4zODEsMCwyLjUtMS4xMTksMi41LTIuNXYtMTdDMzUsMTQuMTE5LDMzLjg4MSwxMywzMi41LDEzeiIgZmlsbD0iI2ZmZiIvPjwvc3ZnPg==;labelPosition=right;align=left;spacingLeft=5;" vertex="1" parent="UC3JsSp_i03SQCJfxstO-37">
          <mxGeometry x="642.41" y="429" width="31.09" height="36" as="geometry" />
        </mxCell>
        <mxCell id="2To4Lg_6mNJgqHkVp9uK-46" value="" style="edgeStyle=orthogonalEdgeStyle;html=1;endArrow=block;elbow=vertical;startArrow=block;startFill=1;endFill=1;strokeColor=#545B64;rounded=0;" edge="1" parent="1">
          <mxGeometry width="100" relative="1" as="geometry">
            <mxPoint x="630" y="380" as="sourcePoint" />
            <mxPoint x="630" y="380" as="targetPoint" />
          </mxGeometry>
        </mxCell>
        <mxCell id="WNSD578OAHb0zQvH4Scg-39" value="kubectl" style="editableCssRules=.*;html=1;shape=image;verticalLabelPosition=bottom;labelBackgroundColor=#ffffff;verticalAlign=top;aspect=fixed;imageAspect=0;image=data:image/svg+xml,PHN2ZyB4bWxucz0iaHR0cDovL3d3dy53My5vcmcvMjAwMC9zdmciIHhtbG5zOnY9Imh0dHBzOi8vdmVjdGEuaW8vbmFubyIgd2lkdGg9IjM3NS44NTAyODQ2NDQwODg3MyIgaGVpZ2h0PSIzNTMuODA1Nzc3NDY3NzY5NyIgdmlld0JveD0iMC4yNTU5OTk1NjUxMjQ1MTE3IDAuNDI2MDAwMDI4ODQ4NjQ4MDcgOTkuNDQzNjU2OTIxMzg2NzIgOTMuNjExMDAwMDYxMDM1MTYiPiYjeGE7PHN0eWxlIHR5cGU9InRleHQvY3NzIj4mI3hhOwkuc3Qwe2ZpbGw6I2FlY2JmYTt9JiN4YTsJLnN0MXtmaWxsOiNmZmY7fSYjeGE7CS5zdDJ7ZmlsbDojNDI4NWY0O30mI3hhOwkuc3Qze2ZpbGw6IzY2OWRmNjt9JiN4YTs8L3N0eWxlPiYjeGE7CTxwYXRoIGNsYXNzPSJzdDAiIGQ9Ik04LjU0NCA3MS45MjhjLTQuODE1IDAtOC4yODgtMy44ODktOC4yODgtOC4zMjdWNy45ODNDLjI1NyA0LjY1IDQuMDcyLjQyNiA3LjQ5NS40MjZoODMuOTUyYzQuNzA1IDAgOC4yNTIgMy4zNzkgOC4yNTIgOC4xNzR2NTEuNDk1Yy4wNDcgNy41OTUtMi40NyAxMS44MzQtOS4wMTIgMTEuODM0eiIvPiYjeGE7CTxwYXRoIGNsYXNzPSJzdDEiIGQ9Ik0yOC4wNDYgNTcuMTV2LTkuOTIybDMxLjg4Mi0xMy44OTEtMzEuODgyLTEzLjY5MlY5LjI2MWw0NS44MDYgMTguOTg0djkuNzl6bTI1LjIzNSAzLjY3MXYtMTAuNTVoMjAuMDc1djEwLjU1eiIvPiYjeGE7CTxwYXRoIGNsYXNzPSJzdDIiIGQ9Ik00MC4wMyA4My41MjRWNzEuOTI4aDIwLjI5NXYxMS41OTZ6Ii8+JiN4YTsJPHBhdGggY2xhc3M9InN0MyIgZD0iTTY5Ljg3MyA4My41MjR2MTAuNTEzSDMwLjFWODMuNTI0eiIvPiYjeGE7PC9zdmc+;" vertex="1" parent="1">
          <mxGeometry x="60" y="359" width="42.11" height="40" as="geometry" />
        </mxCell>
        <mxCell id="WNSD578OAHb0zQvH4Scg-41" style="edgeStyle=orthogonalEdgeStyle;rounded=0;orthogonalLoop=1;jettySize=auto;html=1;exitX=1;exitY=0.5;exitDx=0;exitDy=0;entryX=-0.012;entryY=0.459;entryDx=0;entryDy=0;entryPerimeter=0;" edge="1" parent="1" source="WNSD578OAHb0zQvH4Scg-39" target="WNSD578OAHb0zQvH4Scg-2">
          <mxGeometry relative="1" as="geometry">
            <mxPoint x="200" y="350" as="targetPoint" />
          </mxGeometry>
        </mxCell>
      </root>
    </mxGraphModel>
  </diagram>
</mxfile>
